<?xml version='1.0' encoding='utf-8'?>
<!DOCTYPE svg PUBLIC '-//W3C//DTD SVG 1.1//EN' 'http://www.w3.org/Graphics/SVG/1.1/DTD/svg11.dtd'>
<svg version="1.1" xmlns="http://www.w3.org/2000/svg" viewBox="0 0 512 512" xmlns:xlink="http://www.w3.org/1999/xlink" enable-background="new 0 0 512 512">
  <g>
    <g>
      <g>
        <path fill="#61dafb" d="m493.7,201.6l-224.5-186.1c-7.6-6.3-18.5-6.3-26.1,0l-224.6,186.1c-8.7,7.2-9.9,20.1-2.7,28.8 7.2,8.7 20.1,9.9 28.8,2.7l14.7-12.2v259.5c0,11.3 9.1,20.4 20.4,20.4h352.9c11.3,0 20.4-9.1 20.4-20.4v-259.5l14.7,12.2c13.1,10.3 24.7,2.2 28.8-2.7 7.1-8.7 5.9-21.6-2.8-28.8zm-81.5,258.4h-312.1v-251.7h312.1v251.7zm-288.5-292.5l132.4-109.7 132.4,109.7h-264.8z"/>
        <path fill="#61dafb" d="m206,351.8h29.7v29.7c0,11.3 9.1,20.4 20.4,20.4s20.4-9.1 20.4-20.4v-29.7h29.7c11.3,0 20.4-9.1 20.4-20.4 0-11.3-9.1-20.4-20.4-20.4h-29.7v-29.7c0-11.3-9.1-20.4-20.4-20.4s-20.4,9.1-20.4,20.4v29.7h-29.7c-11.3,0-20.4,9.1-20.4,20.4 0,11.3 9.2,20.4 20.4,20.4z"/>
      </g>
    </g>
  </g>
</svg>
